<svg width="281" height="66" viewBox="0 0 281 66" fill="none" xmlns="http://www.w3.org/2000/svg">
<g clip-path="url(#clip0_17678_23337)">
<path d="M95.4788 44.6888V52.3722C95.4738 53.4379 95.1405 54.3103 94.4816 54.9881C93.8214 55.6659 92.9264 56.0461 91.7966 56.1288L91.404 56.144C90.1757 56.144 89.1974 55.8109 88.469 55.1432C87.7393 54.4756 87.3695 53.5574 87.3594 52.3875V44.6875H88.8237V52.3404C88.8237 53.1581 89.0471 53.7927 89.494 54.2454C89.9409 54.6981 90.5771 54.9245 91.4052 54.9245C92.2333 54.9245 92.8834 54.6994 93.3278 54.2492C93.7721 53.7991 93.9943 53.1645 93.9943 52.3481V44.6875H95.4814L95.4788 44.6888Z" fill="#F3F8FF"/>
<path d="M101.619 48.8809C101.403 48.844 101.17 48.8262 100.919 48.8262C99.9833 48.8262 99.3496 49.2267 99.015 50.0292V55.9908H97.5898V47.5926H98.9772L98.9999 48.5629C99.467 47.8126 100.13 47.4375 100.988 47.4375C101.266 47.4375 101.477 47.4744 101.621 47.5469V48.8821L101.619 48.8809Z" fill="#F3F8FF"/>
<path d="M102.399 51.7132C102.399 50.8904 102.559 50.1503 102.88 49.4928C103.2 48.8354 103.647 48.328 104.22 47.9719C104.793 47.6146 105.446 47.4365 106.181 47.4365C107.316 47.4365 108.235 47.832 108.935 48.6243C109.636 49.4153 109.987 50.4695 109.987 51.7831V51.8836C109.987 52.7013 109.831 53.435 109.521 54.0836C109.21 54.7334 108.766 55.2383 108.188 55.6007C107.61 55.9631 106.946 56.1437 106.196 56.1437C105.066 56.1437 104.15 55.7482 103.449 54.9559C102.748 54.1637 102.397 53.1158 102.397 51.8124V51.7119L102.399 51.7132ZM103.832 51.8848C103.832 52.8157 104.046 53.5635 104.475 54.1281C104.904 54.6927 105.478 54.9738 106.197 54.9738C106.917 54.9738 107.496 54.6876 107.923 54.1166C108.349 53.5444 108.563 52.7445 108.563 51.7144C108.563 50.7938 108.346 50.0473 107.911 49.475C107.477 48.904 106.9 48.6179 106.182 48.6179C105.464 48.6179 104.911 48.9002 104.479 49.4636C104.047 50.0269 103.832 50.8344 103.832 51.8848Z" fill="#F3F8FF"/>
<path d="M113.323 55.9893H111.897V44.0674H113.323V55.9893Z" fill="#F3F8FF"/>
<path d="M115.226 51.7132C115.226 50.8904 115.386 50.1503 115.707 49.4928C116.027 48.8354 116.474 48.328 117.047 47.9719C117.621 47.6146 118.273 47.4365 119.008 47.4365C120.143 47.4365 121.062 47.832 121.762 48.6243C122.463 49.4153 122.814 50.4695 122.814 51.7831V51.8836C122.814 52.7013 122.659 53.435 122.348 54.0836C122.038 54.7334 121.593 55.2383 121.015 55.6007C120.437 55.9631 119.773 56.1437 119.023 56.1437C117.893 56.1437 116.977 55.7482 116.276 54.9559C115.576 54.1637 115.225 53.1158 115.225 51.8124V51.7119L115.226 51.7132ZM116.659 51.8848C116.659 52.8157 116.873 53.5635 117.302 54.1281C117.732 54.6927 118.305 54.9738 119.024 54.9738C119.744 54.9738 120.323 54.6876 120.75 54.1166C121.177 53.5444 121.39 52.7445 121.39 51.7144C121.39 50.7938 121.173 50.0473 120.739 49.475C120.304 48.904 119.727 48.6179 119.009 48.6179C118.291 48.6179 117.738 48.9002 117.306 49.4636C116.875 50.0269 116.659 50.8344 116.659 51.8848Z" fill="#F3F8FF"/>
<path d="M124.264 51.7208C124.264 50.4122 124.564 49.3707 125.165 48.5963C125.766 47.8231 126.562 47.4365 127.553 47.4365C128.544 47.4365 129.364 47.799 129.934 48.5225L130.004 47.5917H131.306V55.7876C131.306 56.8736 130.987 57.7307 130.347 58.3564C129.707 58.9821 128.849 59.2949 127.769 59.2949C127.168 59.2949 126.58 59.1652 126.004 58.907C125.429 58.6476 124.99 58.2941 124.687 57.8439L125.426 56.9817C126.037 57.7422 126.785 58.1224 127.668 58.1224C128.361 58.1224 128.903 57.9253 129.29 57.5324C129.678 57.1394 129.872 56.585 129.872 55.8716V55.1492C129.302 55.8118 128.524 56.1424 127.538 56.1424C126.552 56.1424 125.772 55.7469 125.169 54.9547C124.565 54.1624 124.264 53.084 124.264 51.7183V51.7208ZM125.698 51.8848C125.698 52.8322 125.891 53.5749 126.276 54.1166C126.661 54.6571 127.2 54.928 127.894 54.928C128.793 54.928 129.453 54.5159 129.875 53.6932V49.8591C129.438 49.0566 128.783 48.6561 127.911 48.6561C127.218 48.6561 126.675 48.9269 126.285 49.4712C125.895 50.0142 125.699 50.8192 125.699 51.8848H125.698Z" fill="#F3F8FF"/>
<path d="M133.464 45.3646C133.464 45.1319 133.535 44.9348 133.676 44.7745C133.817 44.6143 134.027 44.5342 134.303 44.5342C134.58 44.5342 134.792 44.6143 134.935 44.7745C135.078 44.9348 135.15 45.1319 135.15 45.3646C135.15 45.5973 135.078 45.7919 134.935 45.947C134.791 46.1022 134.58 46.1797 134.303 46.1797C134.027 46.1797 133.816 46.1022 133.676 45.947C133.536 45.7919 133.464 45.5973 133.464 45.3646ZM135.005 55.9894H133.58V47.5913H135.005V55.9894Z" fill="#F3F8FF"/>
<path d="M142.431 55.9891C142.349 55.8238 142.282 55.5288 142.231 55.1041C141.568 55.7971 140.776 56.1443 139.857 56.1443C139.036 56.1443 138.362 55.9103 137.835 55.4423C137.309 54.9743 137.045 54.3805 137.045 53.6607C137.045 52.7858 137.374 52.1067 138.035 51.6235C138.695 51.1402 139.623 50.8973 140.819 50.8973H142.207V50.2373C142.207 49.735 142.058 49.3357 141.76 49.0382C141.462 48.7406 141.023 48.5918 140.442 48.5918C139.933 48.5918 139.507 48.7215 139.163 48.9797C138.819 49.2391 138.647 49.5519 138.647 49.9182H137.214C137.214 49.4998 137.362 49.0941 137.657 48.7037C137.953 48.3133 138.353 48.0043 138.859 47.7767C139.365 47.549 139.921 47.4346 140.526 47.4346C141.487 47.4346 142.24 47.6762 142.784 48.1607C143.328 48.6439 143.61 49.3103 143.631 50.1598V54.0257C143.631 54.7963 143.728 55.4093 143.923 55.8645V55.9891H142.429H142.431ZM140.067 54.8955C140.514 54.8955 140.938 54.7785 141.338 54.5458C141.738 54.3131 142.029 54.0104 142.209 53.6378V51.9147H141.092C139.346 51.9147 138.473 52.4297 138.473 53.4585C138.473 53.9087 138.622 54.2609 138.92 54.514C139.217 54.7671 139.6 54.8942 140.067 54.8942V54.8955Z" fill="#F3F8FF"/>
<path d="M153.233 56.145C152.103 56.145 151.184 55.7711 150.475 55.0233C149.766 54.2756 149.412 53.2761 149.412 52.0235V51.7602C149.412 50.9273 149.57 50.1833 149.885 49.5284C150.201 48.8735 150.643 48.361 151.211 47.9922C151.779 47.6222 152.394 47.4365 153.057 47.4365C154.14 47.4365 154.983 47.7964 155.584 48.5149C156.185 49.2334 156.485 50.2635 156.485 51.6038V52.2015H150.837C150.858 53.0294 151.097 53.6983 151.558 54.2082C152.018 54.7181 152.602 54.9725 153.312 54.9725C153.815 54.9725 154.241 54.8695 154.59 54.6622C154.94 54.4549 155.245 54.1815 155.507 53.8394L156.378 54.5223C155.68 55.6032 154.632 56.145 153.235 56.145H153.233ZM153.057 48.6166C152.481 48.6166 151.999 48.8277 151.609 49.2487C151.219 49.6709 150.977 50.2609 150.884 51.0227H155.06V50.9133C155.018 50.1833 154.824 49.6187 154.474 49.2169C154.124 48.8163 153.652 48.6154 153.057 48.6154V48.6166Z" fill="#F3F8FF"/>
<path d="M170.516 52.4026C170.377 53.598 169.939 54.52 169.202 55.1698C168.465 55.8196 167.485 56.1439 166.262 56.1439C164.937 56.1439 163.875 55.6658 163.076 54.7082C162.277 53.7506 161.878 52.47 161.878 50.8664V49.7804C161.878 48.73 162.064 47.8068 162.436 47.0095C162.808 46.2121 163.336 45.6004 164.019 45.1732C164.702 44.7459 165.493 44.5322 166.392 44.5322C167.584 44.5322 168.539 44.8667 169.259 45.5369C169.978 46.207 170.396 47.1341 170.515 48.3193H169.028C168.899 47.4164 168.62 46.7627 168.192 46.3571C167.764 45.9514 167.163 45.7492 166.393 45.7492C165.448 45.7492 164.707 46.1015 164.17 46.806C163.634 47.5105 163.365 48.5126 163.365 49.8122V50.9084C163.365 52.1356 163.619 53.1122 164.127 53.8371C164.636 54.5619 165.347 54.9244 166.262 54.9244C167.084 54.9244 167.714 54.7374 168.153 54.361C168.592 53.9859 168.884 53.3322 169.028 52.4014H170.515L170.516 52.4026Z" fill="#F3F8FF"/>
<path d="M172.318 45.3646C172.318 45.1319 172.389 44.9348 172.53 44.7745C172.672 44.6143 172.881 44.5342 173.158 44.5342C173.434 44.5342 173.646 44.6143 173.789 44.7745C173.933 44.9348 174.005 45.1319 174.005 45.3646C174.005 45.5973 173.933 45.7919 173.789 45.947C173.645 46.1022 173.434 46.1797 173.158 46.1797C172.881 46.1797 172.671 46.1022 172.53 45.947C172.39 45.7919 172.318 45.5973 172.318 45.3646ZM173.86 55.9894H172.434V47.5913H173.86V55.9894Z" fill="#F3F8FF"/>
<path d="M180.169 48.8809C179.953 48.844 179.72 48.8262 179.468 48.8262C178.533 48.8262 177.899 49.2267 177.565 50.0292V55.9908H176.14V47.5926H177.527L177.55 48.5629C178.017 47.8126 178.68 47.4375 179.538 47.4375C179.816 47.4375 180.026 47.4744 180.17 47.5469V48.8821L180.169 48.8809Z" fill="#F3F8FF"/>
<path d="M186.626 55.1586C186.072 55.816 185.258 56.1441 184.183 56.1441C183.295 56.1441 182.618 55.8847 182.154 55.3646C181.689 54.8445 181.454 54.0751 181.449 53.0552V47.5908H182.874V53.0158C182.874 54.2887 183.388 54.9259 184.416 54.9259C185.505 54.9259 186.228 54.5176 186.588 53.7V47.5908H188.013V55.989H186.658L186.627 55.1586H186.626Z" fill="#F3F8FF"/>
<path d="M194.208 48.8809C193.992 48.844 193.759 48.8262 193.508 48.8262C192.572 48.8262 191.938 49.2267 191.604 50.0292V55.9908H190.179V47.5926H191.566L191.589 48.5629C192.056 47.8126 192.719 47.4375 193.577 47.4375C193.855 47.4375 194.065 47.4744 194.209 47.5469V48.8821L194.208 48.8809Z" fill="#F3F8FF"/>
<path d="M195.032 51.7208C195.032 50.4122 195.333 49.3707 195.934 48.5963C196.534 47.8231 197.331 47.4365 198.322 47.4365C199.313 47.4365 200.132 47.799 200.703 48.5225L200.772 47.5917H202.075V55.7876C202.075 56.8736 201.756 57.7307 201.116 58.3564C200.475 58.9821 199.617 59.2949 198.538 59.2949C197.937 59.2949 197.349 59.1652 196.773 58.907C196.197 58.6476 195.758 58.2941 195.455 57.8439L196.195 56.9817C196.806 57.7422 197.553 58.1224 198.437 58.1224C199.13 58.1224 199.671 57.9253 200.059 57.5324C200.446 57.1394 200.641 56.585 200.641 55.8716V55.1492C200.07 55.8118 199.293 56.1424 198.307 56.1424C197.321 56.1424 196.541 55.7469 195.937 54.9547C195.334 54.1624 195.032 53.084 195.032 51.7183V51.7208ZM196.465 51.8848C196.465 52.8322 196.658 53.5749 197.043 54.1166C197.428 54.6571 197.967 54.928 198.661 54.928C199.56 54.928 200.221 54.5159 200.642 53.6932V49.8591C200.205 49.0566 199.55 48.6561 198.678 48.6561C197.985 48.6561 197.442 48.9269 197.052 49.4712C196.662 50.0142 196.466 50.8192 196.466 51.8848H196.465Z" fill="#F3F8FF"/>
<path d="M204.231 45.3646C204.231 45.1319 204.302 44.9348 204.444 44.7745C204.585 44.6143 204.794 44.5342 205.071 44.5342C205.347 44.5342 205.559 44.6143 205.702 44.7745C205.846 44.9348 205.918 45.1319 205.918 45.3646C205.918 45.5973 205.846 45.7919 205.702 45.947C205.558 46.1022 205.347 46.1797 205.071 46.1797C204.794 46.1797 204.584 46.1022 204.444 45.947C204.303 45.7919 204.231 45.5973 204.231 45.3646ZM205.773 55.9894H204.348V47.5913H205.773V55.9894Z" fill="#F3F8FF"/>
<path d="M213.2 55.9891C213.118 55.8238 213.051 55.5288 212.999 55.1041C212.336 55.7971 211.545 56.1443 210.626 56.1443C209.804 56.1443 209.13 55.9103 208.604 55.4423C208.077 54.9743 207.813 54.3805 207.813 53.6607C207.813 52.7858 208.143 52.1067 208.803 51.6235C209.463 51.1402 210.391 50.8973 211.588 50.8973H212.975V50.2373C212.975 49.735 212.826 49.3357 212.528 49.0382C212.23 48.7406 211.791 48.5918 211.21 48.5918C210.702 48.5918 210.275 48.7215 209.932 48.9797C209.587 49.2391 209.415 49.5519 209.415 49.9182H207.983C207.983 49.4998 208.13 49.0941 208.426 48.7037C208.721 48.3133 209.121 48.0043 209.627 47.7767C210.134 47.549 210.689 47.4346 211.295 47.4346C212.256 47.4346 213.008 47.6762 213.552 48.1607C214.096 48.6439 214.379 49.3103 214.399 50.1598V54.0257C214.399 54.7963 214.496 55.4093 214.692 55.8645V55.9891H213.197H213.2ZM210.834 54.8955C211.281 54.8955 211.705 54.7785 212.105 54.5458C212.506 54.3131 212.796 54.0104 212.977 53.6378V51.9147H211.859C210.113 51.9147 209.24 52.4297 209.24 53.4585C209.24 53.9087 209.389 54.2609 209.687 54.514C209.985 54.7671 210.367 54.8942 210.834 54.8942V54.8955Z" fill="#F3F8FF"/>
<path d="M224.881 51.4172H222.245V55.9889H220.758V44.6875H224.472C225.735 44.6875 226.707 44.9774 227.388 45.5573C228.068 46.1372 228.409 46.9803 228.409 48.088C228.409 48.7925 228.22 49.4054 227.842 49.9281C227.465 50.4507 226.94 50.8411 226.267 51.0993L228.901 55.8961V55.9889H227.314L224.879 51.4172H224.881ZM222.245 50.1989H224.518C225.253 50.1989 225.838 50.0069 226.272 49.6241C226.706 49.2401 226.923 48.7276 226.923 48.0841C226.923 47.3847 226.716 46.8481 226.303 46.4742C225.889 46.1003 225.292 45.9121 224.512 45.907H222.246V50.1989H222.245Z" fill="#F3F8FF"/>
<path d="M229.881 51.7132C229.881 50.8904 230.041 50.1503 230.362 49.4928C230.683 48.8354 231.13 48.328 231.703 47.9719C232.276 47.6146 232.928 47.4365 233.663 47.4365C234.798 47.4365 235.717 47.832 236.418 48.6243C237.118 49.4153 237.469 50.4695 237.469 51.7831V51.8836C237.469 52.7013 237.314 53.435 237.003 54.0836C236.693 54.7334 236.248 55.2383 235.67 55.6007C235.092 55.9631 234.428 56.1437 233.678 56.1437C232.548 56.1437 231.632 55.7482 230.931 54.9559C230.231 54.1637 229.88 53.1158 229.88 51.8124V51.7119L229.881 51.7132ZM231.314 51.8848C231.314 52.8157 231.529 53.5635 231.958 54.1281C232.387 54.6927 232.96 54.9738 233.68 54.9738C234.399 54.9738 234.979 54.6876 235.405 54.1166C235.832 53.5444 236.045 52.7445 236.045 51.7144C236.045 50.7938 235.828 50.0473 235.394 49.475C234.96 48.904 234.383 48.6179 233.664 48.6179C232.946 48.6179 232.393 48.9002 231.962 49.4636C231.53 50.0269 231.314 50.8344 231.314 51.8848Z" fill="#F3F8FF"/>
<path d="M246.316 51.8841C246.316 53.1672 246.023 54.1985 245.437 54.9768C244.852 55.7551 244.066 56.1455 243.079 56.1455C242.026 56.1455 241.212 55.7703 240.637 55.02L240.567 55.9903H239.257V44.0684H240.682V48.5154C241.258 47.7956 242.05 47.437 243.063 47.437C244.075 47.437 244.869 47.8223 245.447 48.5943C246.026 49.3649 246.315 50.4204 246.315 51.7607V51.8854L246.316 51.8841ZM244.889 51.72C244.889 50.7421 244.701 49.9867 244.326 49.4539C243.952 48.9211 243.413 48.654 242.708 48.654C241.768 48.654 241.092 49.094 240.682 49.974V53.6059C241.119 54.4859 241.799 54.9259 242.723 54.9259C243.406 54.9259 243.938 54.6589 244.318 54.126C244.698 53.5932 244.888 52.7908 244.888 51.72H244.889Z" fill="#F3F8FF"/>
<path d="M247.733 51.7127C247.733 50.8899 247.893 50.1498 248.214 49.4924C248.534 48.8349 248.981 48.3275 249.554 47.9714C250.127 47.6141 250.78 47.4361 251.515 47.4361C252.65 47.4361 253.569 47.8315 254.269 48.6238C254.97 49.4148 255.321 50.469 255.321 51.7826V51.8831C255.321 52.7008 255.165 53.4346 254.855 54.0831C254.544 54.7329 254.1 55.2378 253.522 55.6002C252.944 55.9626 252.28 56.1432 251.53 56.1432C250.4 56.1432 249.484 55.7477 248.783 54.9555C248.082 54.1632 247.731 53.1154 247.731 51.8119V51.7114L247.733 51.7127ZM249.165 51.8844C249.165 52.8152 249.38 53.563 249.809 54.1276C250.238 54.6922 250.812 54.9733 251.531 54.9733C252.251 54.9733 252.83 54.6871 253.257 54.1162C253.683 53.5439 253.897 52.744 253.897 51.714C253.897 50.7933 253.68 50.0468 253.245 49.4745C252.811 48.9036 252.234 48.6174 251.516 48.6174C250.798 48.6174 250.245 48.8998 249.813 49.4631C249.381 50.0265 249.165 50.834 249.165 51.8844ZM252.162 44.0674H253.888L251.823 46.3488L250.675 46.345L252.162 44.0674Z" fill="#F3F8FF"/>
<path d="M259.044 45.5576V47.591H260.6V48.7012H259.044V53.9163C259.044 54.2533 259.113 54.5051 259.252 54.6743C259.391 54.8434 259.627 54.9273 259.962 54.9273C260.126 54.9273 260.352 54.8968 260.639 54.8345V55.9917C260.265 56.0947 259.9 56.1456 259.545 56.1456C258.907 56.1456 258.428 55.951 258.105 55.5632C257.781 55.1753 257.62 54.6247 257.62 53.91V48.7012H256.103V47.591H257.62V45.5576H259.045H259.044Z" fill="#F3F8FF"/>
<path d="M262.271 45.3646C262.271 45.1319 262.342 44.9348 262.484 44.7745C262.625 44.6143 262.835 44.5342 263.111 44.5342C263.387 44.5342 263.6 44.6143 263.742 44.7745C263.886 44.9348 263.958 45.1319 263.958 45.3646C263.958 45.5973 263.886 45.7919 263.742 45.947C263.598 46.1022 263.387 46.1797 263.111 46.1797C262.835 46.1797 262.624 46.1022 262.484 45.947C262.343 45.7919 262.271 45.5973 262.271 45.3646ZM263.813 55.9894H262.388V47.5913H263.813V55.9894Z" fill="#F3F8FF"/>
<path d="M269.436 54.9735C269.945 54.9735 270.39 54.8183 270.77 54.508C271.15 54.1977 271.36 53.8099 271.401 53.3444H272.749C272.724 53.8251 272.558 54.2829 272.255 54.7178C271.952 55.1528 271.547 55.4987 271.042 55.7581C270.536 56.0175 270.001 56.1459 269.435 56.1459C268.3 56.1459 267.398 55.7644 266.727 55.0014C266.057 54.2384 265.723 53.1944 265.723 51.8693V51.6289C265.723 50.8113 265.872 50.0851 266.17 49.448C266.467 48.8122 266.895 48.3175 267.452 47.9652C268.01 47.613 268.668 47.4375 269.429 47.4375C270.364 47.4375 271.141 47.7198 271.759 48.2832C272.378 48.8465 272.708 49.579 272.749 50.4794H271.401C271.359 49.9363 271.156 49.49 270.788 49.1403C270.421 48.7906 269.968 48.6163 269.429 48.6163C268.704 48.6163 268.144 48.8796 267.745 49.4048C267.347 49.93 267.148 50.6892 267.148 51.6824V51.9545C267.148 52.9222 267.346 53.6674 267.741 54.1901C268.136 54.7128 268.702 54.9735 269.436 54.9735Z" fill="#F3F8FF"/>
<path d="M279.499 55.9891C279.417 55.8238 279.35 55.5288 279.298 55.1041C278.635 55.7971 277.844 56.1443 276.925 56.1443C276.103 56.1443 275.429 55.9103 274.903 55.4423C274.376 54.9743 274.112 54.3805 274.112 53.6607C274.112 52.7858 274.442 52.1067 275.102 51.6235C275.762 51.1402 276.69 50.8973 277.887 50.8973H279.274V50.2373C279.274 49.735 279.125 49.3357 278.827 49.0382C278.529 48.7406 278.09 48.5918 277.509 48.5918C277.001 48.5918 276.574 48.7215 276.231 48.9797C275.886 49.2391 275.714 49.5519 275.714 49.9182H274.281C274.281 49.4998 274.429 49.0941 274.725 48.7037C275.02 48.3133 275.42 48.0043 275.926 47.7767C276.433 47.549 276.988 47.4346 277.594 47.4346C278.555 47.4346 279.307 47.6762 279.851 48.1607C280.395 48.6439 280.678 49.3103 280.698 50.1598V54.0257C280.698 54.7963 280.795 55.4093 280.991 55.8645V55.9891H279.496H279.499ZM277.133 54.8955C277.58 54.8955 278.004 54.7785 278.404 54.5458C278.804 54.3131 279.095 54.0104 279.275 53.6378V51.9147H278.158C276.412 51.9147 275.539 52.4297 275.539 53.4585C275.539 53.9087 275.688 54.2609 275.986 54.514C276.284 54.7671 276.666 54.8942 277.133 54.8942V54.8955Z" fill="#F3F8FF"/>
<path d="M86.7645 12.2231C87.0574 11.9192 87.426 11.7666 87.8703 11.7666H96.3407C97.4768 11.7666 98.5246 12.0616 99.484 12.6517C100.443 13.2417 101.211 14.034 101.788 15.0259C102.365 16.0191 102.654 17.0695 102.654 18.1784C102.654 19.2873 102.391 20.3034 101.869 21.2775C101.345 22.2528 100.625 23.04 99.7112 23.639C98.796 24.2379 97.7886 24.538 96.6879 24.538H93.7579L94.2906 23.438L102.387 33.2312H98.6054L90.9871 24.1616C90.703 23.8043 90.5604 23.4101 90.5604 22.9815C90.5604 22.553 90.7018 22.1943 90.9871 21.9082C91.2711 21.6221 91.6523 21.4784 92.132 21.4784H96.4467C97.0325 21.4784 97.5614 21.322 98.031 21.0091C98.5019 20.6963 98.8793 20.2894 99.1633 19.7883C99.4474 19.2873 99.59 18.7596 99.59 18.2051C99.59 17.615 99.4385 17.0644 99.1368 16.5545C98.8351 16.0445 98.4312 15.6376 97.925 15.3337C97.4188 15.0297 96.881 14.8771 96.3129 14.8771H89.3612V33.23H86.3252V13.3231C86.3252 12.8933 86.4716 12.5271 86.7645 12.2231Z" fill="#F3F8FF"/>
<path d="M117.395 17.8043C118.131 18.2519 118.718 18.8419 119.154 19.5757C119.589 20.3095 119.806 21.0966 119.806 21.9372V28.4571C119.806 29.2977 119.589 30.0848 119.154 30.8186C118.718 31.5524 118.129 32.1386 117.383 32.5761C116.637 33.0148 115.846 33.2335 115.012 33.2335H110.165C109.312 33.2335 108.517 33.0148 107.781 32.5761C107.044 32.1386 106.458 31.5524 106.023 30.8186C105.587 30.0848 105.37 29.2989 105.37 28.4571V21.9372C105.37 21.0966 105.587 20.3095 106.023 19.5757C106.458 18.8419 107.044 18.2519 107.781 17.8043C108.517 17.3566 109.312 17.1328 110.165 17.1328H115.012C115.864 17.1328 116.659 17.3566 117.395 17.8043ZM109.325 20.4735C109.068 20.6261 108.859 20.8321 108.699 21.0903C108.539 21.3497 108.459 21.632 108.459 21.9359V28.4558C108.459 28.7597 108.539 29.0421 108.699 29.3015C108.859 29.5609 109.068 29.7618 109.325 29.9055C109.583 30.0492 109.862 30.1204 110.165 30.1204H115.012C115.314 30.1204 115.594 30.0492 115.851 29.9055C116.109 29.7631 116.317 29.5609 116.478 29.3015C116.638 29.0421 116.717 28.761 116.717 28.4558V21.9359C116.717 21.632 116.638 21.3497 116.478 21.0903C116.317 20.8308 116.109 20.6248 115.851 20.4735C115.594 20.3222 115.314 20.2459 115.012 20.2459H110.165C109.863 20.2459 109.583 20.3222 109.325 20.4735Z" fill="#F3F8FF"/>
<path d="M139.397 17.7766C140.116 18.2064 140.688 18.7876 141.115 19.52C141.541 20.2538 141.754 21.0588 141.754 21.935V33.2313H138.691V21.9083C138.691 21.6043 138.62 21.3271 138.478 21.0766C138.335 20.8261 138.141 20.6251 137.892 20.4725C137.643 20.3212 137.368 20.2449 137.066 20.2449H133.87V33.2313H130.808V20.2449H125.987V33.2313H122.896V18.6884C122.896 18.2585 123.047 17.8923 123.35 17.5884C123.651 17.2844 124.024 17.1318 124.468 17.1318H137.013C137.883 17.1318 138.678 17.3467 139.397 17.7753V17.7766Z" fill="#F3F8FF"/>
<path d="M158.28 32.7764C157.969 33.0803 157.601 33.2329 157.174 33.2329H150.542C149.672 33.2329 148.873 33.018 148.144 32.5894C147.416 32.1596 146.834 31.5785 146.4 30.846C145.964 30.1122 145.747 29.3072 145.747 28.4311V17.1348H148.837V28.4578C148.837 28.7617 148.908 29.044 149.051 29.3034C149.192 29.5629 149.397 29.7638 149.663 29.9075C149.929 30.0512 150.222 30.1224 150.542 30.1224H155.655V17.136H158.746V31.6522C158.746 32.0998 158.59 32.475 158.28 32.7789V32.7764Z" fill="#F3F8FF"/>
<path d="M165.033 32.575C164.322 32.1376 163.763 31.5513 163.355 30.8176C162.946 30.0838 162.743 29.2789 162.743 28.4027V11.7666H165.86V28.4027C165.86 28.7066 165.931 28.9889 166.073 29.2483C166.215 29.5078 166.41 29.7087 166.659 29.8524C166.908 29.9961 167.183 30.0673 167.485 30.0673H168.79V33.2338H167.352C166.518 33.2338 165.745 33.015 165.034 32.5763L165.033 32.575Z" fill="#F3F8FF"/>
<path d="M183.478 17.8043C184.214 18.2519 184.801 18.8419 185.237 19.5757C185.672 20.3095 185.889 21.0966 185.889 21.9372V28.4571C185.889 29.2977 185.672 30.0848 185.237 30.8186C184.801 31.5524 184.212 32.1386 183.466 32.5761C182.72 33.0148 181.929 33.2335 181.095 33.2335H176.248C175.395 33.2335 174.6 33.0148 173.864 32.5761C173.127 32.1386 172.541 31.5524 172.106 30.8186C171.67 30.0848 171.453 29.2989 171.453 28.4571V21.9372C171.453 21.0966 171.67 20.3095 172.106 19.5757C172.541 18.8419 173.127 18.2519 173.864 17.8043C174.6 17.3566 175.395 17.1328 176.248 17.1328H181.095C181.947 17.1328 182.742 17.3566 183.478 17.8043ZM175.407 20.4735C175.149 20.6261 174.941 20.8321 174.781 21.0903C174.62 21.3497 174.541 21.632 174.541 21.9359V28.4558C174.541 28.7597 174.62 29.0421 174.781 29.3015C174.941 29.5609 175.149 29.7618 175.407 29.9055C175.664 30.0492 175.943 30.1204 176.246 30.1204H181.094C181.395 30.1204 181.676 30.0492 181.933 29.9055C182.191 29.7631 182.399 29.5609 182.559 29.3015C182.72 29.0421 182.799 28.761 182.799 28.4558V21.9359C182.799 21.632 182.72 21.3497 182.559 21.0903C182.399 20.8308 182.191 20.6248 181.933 20.4735C181.676 20.3222 181.395 20.2459 181.094 20.2459H176.246C175.945 20.2459 175.664 20.3222 175.407 20.4735Z" fill="#F3F8FF"/>
<path d="M211.991 32.8842C211.654 33.1703 211.258 33.2822 210.805 33.2199C210.352 33.1576 209.983 32.9287 209.699 32.5357L198.752 16.7847L199.551 16.5431V33.2326H196.435V13.3499C196.435 12.8133 196.608 12.4013 196.953 12.1151C197.299 11.829 197.694 11.7171 198.139 11.7794C198.582 11.8417 198.947 12.0706 199.231 12.4636L210.231 28.1879L209.405 28.4829V11.7667H212.495V31.6494C212.495 32.186 212.326 32.598 211.989 32.8842H211.991Z" fill="#F3F8FF"/>
<path d="M229.024 32.7764C228.713 33.0803 228.345 33.2329 227.918 33.2329H221.286C220.416 33.2329 219.617 33.018 218.888 32.5894C218.16 32.1596 217.578 31.5785 217.144 30.846C216.708 30.1122 216.491 29.3072 216.491 28.4311V17.1348H219.581V28.4578C219.581 28.7617 219.652 29.044 219.795 29.3034C219.936 29.5629 220.141 29.7638 220.407 29.9075C220.673 30.0512 220.966 30.1224 221.286 30.1224H226.399V17.136H229.49V31.6522C229.49 32.0998 229.334 32.475 229.024 32.7789V32.7764Z" fill="#F3F8FF"/>
<path d="M244.606 17.7769C245.342 18.2067 245.929 18.7879 246.365 19.5203C246.8 20.2541 247.018 21.0591 247.018 21.9353V33.2316H243.901V21.9353C243.901 21.6313 243.83 21.349 243.687 21.0896C243.545 20.8302 243.342 20.6292 243.075 20.4855C242.809 20.3431 242.525 20.2706 242.223 20.2706H236.577V33.2303H233.486V18.6874C233.486 18.2576 233.637 17.8913 233.94 17.5874C234.241 17.2835 234.614 17.1309 235.058 17.1309H242.197C243.066 17.1309 243.87 17.3458 244.608 17.7743L244.606 17.7769Z" fill="#F3F8FF"/>
<path d="M253.183 32.5892C252.446 32.1593 251.865 31.5744 251.439 30.8317C251.012 30.0903 250.8 29.2892 250.8 28.4308V21.9376C250.8 21.0792 251.013 20.2781 251.439 19.5367C251.865 18.794 252.446 18.2078 253.183 17.7792C253.92 17.3494 254.714 17.1357 255.566 17.1357H260.361C261.231 17.1357 262.03 17.3596 262.758 17.8072C263.486 18.2548 264.063 18.8538 264.489 19.6053C264.914 20.3569 265.128 21.1619 265.128 22.0203C265.128 22.9689 264.914 23.8133 264.489 24.556C264.062 25.2986 263.49 25.8798 262.771 26.2994C262.051 26.7204 261.248 26.9302 260.36 26.9302H255.325V23.8171H260.413C260.875 23.8171 261.261 23.6518 261.571 23.3212C261.882 22.9905 262.037 22.5569 262.037 22.0203C262.037 21.7163 261.967 21.4251 261.824 21.1479C261.681 20.8707 261.482 20.6519 261.224 20.4904C260.967 20.3289 260.695 20.2488 260.411 20.2488H255.537C255.236 20.2488 254.955 20.32 254.698 20.4637C254.44 20.6074 254.241 20.8083 254.098 21.0678C253.956 21.3272 253.885 21.6095 253.885 21.9134V28.46C253.885 28.764 253.956 29.0463 254.098 29.3057C254.24 29.5651 254.44 29.766 254.698 29.9097C254.955 30.0534 255.234 30.1246 255.537 30.1246H263.927V33.2364H255.564C254.712 33.2364 253.917 33.0215 253.181 32.593L253.183 32.5892Z" fill="#F3F8FF"/>
<path d="M279.459 20.2459H272.72C272.418 20.2459 272.134 20.3222 271.868 20.4735C271.602 20.6261 271.393 20.8321 271.242 21.0903C271.091 21.3497 271.016 21.632 271.016 21.9359C271.016 22.2399 271.092 22.5222 271.242 22.7816C271.392 23.041 271.602 23.247 271.868 23.3984C272.134 23.551 272.418 23.626 272.72 23.626H275.73C276.599 23.626 277.404 23.8409 278.139 24.2695C278.877 24.6993 279.462 25.2804 279.898 26.0129C280.332 26.7467 280.551 27.5517 280.551 28.4278C280.551 29.304 280.333 30.109 279.898 30.8428C279.462 31.5765 278.877 32.1577 278.139 32.5862C277.402 33.016 276.598 33.2297 275.73 33.2297H268.751V30.1179H275.73C276.031 30.1179 276.315 30.0416 276.582 29.8903C276.848 29.7389 277.056 29.5329 277.208 29.2735C277.358 29.0141 277.434 28.733 277.434 28.4278C277.434 28.1226 277.358 27.8416 277.208 27.5822C277.056 27.3228 276.848 27.1167 276.582 26.9654C276.315 26.8141 276.031 26.7378 275.73 26.7378H272.72C271.868 26.7378 271.073 26.5229 270.337 26.0943C269.6 25.6645 269.014 25.0833 268.578 24.3508C268.143 23.6171 267.926 22.821 267.926 21.9626C267.926 21.1043 268.143 20.2764 268.578 19.5337C269.014 18.7911 269.6 18.2048 270.337 17.7763C271.073 17.3465 271.868 17.1328 272.72 17.1328H279.459V20.2459Z" fill="#F3F8FF"/>
<path d="M18.9539 57.5218H18.9552V57.2463H18.9539V57.5218ZM55.7813 56.0065C49.7423 62.09 41.7194 65.4464 33.181 65.4613L33.1798 65.4601H33.1226C32.0143 65.4601 31.1144 64.555 31.1144 63.436C31.1144 62.317 32.0143 61.4119 33.1226 61.4119C48.5776 61.4119 61.1483 48.7457 61.1483 33.1803C61.1483 23.2639 57.0216 14.9368 49.7402 10.0334L49.5214 9.88607L49.5255 10.1498L50.1428 49.9201C50.1428 49.9202 50.1428 49.9202 50.1428 49.9202C50.1634 51.2886 49.3757 52.5327 48.1361 53.0911C46.8967 53.6483 45.4524 53.409 44.4552 52.4802L23.6271 33.0762L23.6063 33.0552L23.6054 33.0544C22.9723 32.4274 22.7809 31.4882 23.1173 30.6595C23.4546 29.8317 24.246 29.3033 25.132 29.3008C25.1321 29.3008 25.1322 29.3008 25.1323 29.3008L32.9815 29.3148L33.0149 29.317L33.0149 29.3171L33.0197 29.3173C33.1054 29.32 33.8051 29.3336 34.6972 29.1415C35.5882 28.9495 36.6832 28.5498 37.5468 27.7171L37.5469 27.7171C38.6346 26.6673 39.1732 25.0738 39.1732 23.0056C39.1732 21.1572 38.6785 19.7855 37.6399 18.8395L37.6399 18.8394C36.5762 17.8714 35.116 17.4837 33.9323 17.3354C32.7455 17.1866 31.815 17.2757 31.7904 17.2783L31.7899 17.2783L31.6799 17.2903H31.5775H20.8361H20.6983V17.428V58.7728C20.6983 59.6955 20.2042 60.5538 19.4093 61.0097L19.4092 61.0097C18.6129 61.4669 17.6284 61.4596 16.8393 60.9892L16.8393 60.9892C12.127 58.1832 8.17994 54.183 5.42333 49.4205L5.3041 49.4895L5.42332 49.4205C2.58138 44.5113 1.07917 38.8953 1.07917 33.1803C1.07917 24.5576 4.41266 16.4513 10.4652 10.3541C16.5177 4.25817 24.5641 0.900454 33.1226 0.900454C34.2309 0.900454 35.1308 1.80557 35.1308 2.92455C35.1308 4.04352 34.2309 4.94864 33.1226 4.94864C17.6676 4.94864 5.09691 17.6149 5.09691 33.1803C5.09691 42.1384 9.38941 50.5952 16.4641 55.8845L16.6844 56.0491V55.7741V16.9346C16.6844 14.8962 18.3303 13.2408 20.3501 13.2408H31.4828V13.2413L31.4942 13.2403C31.9318 13.204 33.3381 13.1248 35.0357 13.4172C36.734 13.7097 38.7131 14.3722 40.3078 15.811C42.2164 17.5338 43.191 19.948 43.191 23.0043C43.191 26.2717 42.2084 28.8481 40.2836 30.6795L40.2836 30.6796C37.4294 33.397 33.492 33.3819 32.8721 33.3618L32.8721 33.3617L32.8679 33.3617L30.1967 33.3566L29.8458 33.3559L30.1026 33.5952L45.8681 48.283L46.1048 48.5035L46.0997 48.1801L45.4787 8.15663C45.4617 7.06732 46.0286 6.04499 46.9558 5.48673C47.8853 4.92862 49.0492 4.91285 49.9932 5.44545L50.0604 5.32628L49.9932 5.44546C59.6321 10.8826 65.166 20.9866 65.166 33.1803C65.166 41.8029 61.8325 49.9092 55.7813 56.0065Z" fill="#0067CD" stroke="#0070DF" stroke-width="0.275518"/>
</g>
<defs>
<clipPath id="clip0_17678_23337">
<rect width="281" height="66" fill="white"/>
</clipPath>
</defs>
</svg>
